<?xml version="1.0" encoding="iso-8859-1"?>
<!DOCTYPE svg PUBLIC "-//W3C//DTD SVG 1.1//EN" "http://www.w3.org/Graphics/SVG/1.1/DTD/svg11.dtd">
<svg version="1.1" id="Capa_1" xmlns="http://www.w3.org/2000/svg" xmlns:xlink="http://www.w3.org/1999/xlink" x="0px" y="0px"
	 width="56px" height="56px" viewBox="0 0 56 56" style="enable-background:new 0 0 56 56;" xml:space="preserve">
<g>
	<path d="M55.877,18.522C55.1,12.933,50.301,8.613,44.5,8.613h-33c-5.8,0-10.598,4.32-11.376,9.909
		c-0.125,0.291-0.151,0.605-0.089,0.902C0.021,19.653,0,19.881,0,20.113v15.773c0,3.688,1.753,6.969,4.461,9.074
		c0.013,0.012,0.022,0.025,0.035,0.037c0.02,0.018,0.044,0.021,0.064,0.038c1.933,1.468,4.333,2.351,6.94,2.351h33
		c6.341,0,11.5-5.16,11.5-11.5V20.113c0-0.233-0.021-0.46-0.035-0.689C56.027,19.127,56.002,18.813,55.877,18.522z M11.5,11.613h33
		c4.111,0,7.548,2.933,8.331,6.817L37.902,28.507c-0.143,0.059-0.28,0.135-0.404,0.241c-0.033,0.028-0.059,0.062-0.087,0.092
		l-1.96,1.322c-4.038,2.727-10.861,2.727-14.899,0L3.169,18.43C3.953,14.547,7.39,11.613,11.5,11.613z M3,35.887V21.935
		l12.226,8.252L5.333,41.719C3.892,40.195,3,38.145,3,35.887z M11.5,44.387c-1.346,0-2.614-0.324-3.747-0.883l9.976-11.627
		l1.143,0.771c2.559,1.729,5.843,2.591,9.127,2.591s6.567-0.864,9.128-2.591l1.102-0.743l9.971,11.622
		c-1.119,0.545-2.371,0.859-3.699,0.859H11.5z M50.634,41.756l-9.901-11.541l12.269-8.28v13.952
		C53,38.162,52.096,40.229,50.634,41.756z"/>
</g>
<g>
</g>
<g>
</g>
<g>
</g>
<g>
</g>
<g>
</g>
<g>
</g>
<g>
</g>
<g>
</g>
<g>
</g>
<g>
</g>
<g>
</g>
<g>
</g>
<g>
</g>
<g>
</g>
<g>
</g>
</svg>
